<?xml version="1.0" standalone="no"?><!DOCTYPE svg PUBLIC "-//W3C//DTD SVG 1.1//EN" "http://www.w3.org/Graphics/SVG/1.1/DTD/svg11.dtd"><svg t="1600853855266" class="icon" viewBox="0 0 1024 1024" version="1.1" xmlns="http://www.w3.org/2000/svg" p-id="1223" xmlns:xlink="http://www.w3.org/1999/xlink" width="32" height="32"><defs><style type="text/css"></style></defs><path d="M0.025941 1.120225C6.306303-0.313335 12.654929-0.040276 19.20835 0.232783 172.053239 0.232783 325.034658 0.027989 477.879547 0.232783v477.375752c-159.056986 0.546118-318.182236 0-477.307487 0.273059C-0.247118 319.029403 0.913384 159.972417 0.025941 1.120225z" fill="#F25022" p-id="1224"></path><path d="M546.144347 0.915431C551.605531-0.245071 557.339775 0.027989 562.800959 0.027989c153.937126 0.341324 307.532927 0 461.196994 0.341324 0 158.988721-0.273059 317.977442 0 476.624838-158.783927 1.433561-317.909177-0.273059-476.693104 0.887443-2.047944-7.713922-0.614383-16.042228-1.160502-24.02921 0-151.001739 0.546118-301.935214 0-452.936953z" fill="#7FBA01" p-id="1225"></path><path d="M0.162471 805.279578C0.43553 718.99287-0.451912 632.433103 0.43553 546.146395c159.125251 0.273059 318.318766 0 477.444017 0.273059v477.307487c-159.125251 0.273059-318.318766 0-477.170958 0.273059-1.160502-72.838542-0.273059-145.60882-0.546118-218.720422z" fill="#00A3EF" p-id="1226"></path><path d="M546.144347 547.102102c6.280362-1.365296 12.902047-0.819178 19.796793-0.819178h449.728507c2.047944 0.273059 6.348626 0.273059 8.328306 0.546119-0.273059 159.056986 0 317.840912 0 476.897898-114.684865 0.273059-229.028407 0-343.713272 0.273059-44.713444-0.546118-89.426889 0.546118-134.140334-0.546118 0.273059-158.783927 0.273059-317.567853 0-476.35178z" fill="#FFB903" p-id="1227"></path></svg>